<mxfile host="app.diagrams.net" modified="2023-11-14T16:23:30.261Z" agent="Mozilla/5.0 (X11; Ubuntu; Linux x86_64; rv:109.0) Gecko/20100101 Firefox/119.0" etag="FjOlEPagfl1C6aQW_Wyv" version="22.1.1" type="github">
  <diagram id="C5RBs43oDa-KdzZeNtuy" name="Page-1">
    <mxGraphModel dx="1048" dy="483" grid="1" gridSize="10" guides="1" tooltips="1" connect="1" arrows="1" fold="1" page="1" pageScale="1" pageWidth="827" pageHeight="1169" math="0" shadow="0">
      <root>
        <mxCell id="WIyWlLk6GJQsqaUBKTNV-0" />
        <mxCell id="WIyWlLk6GJQsqaUBKTNV-1" parent="WIyWlLk6GJQsqaUBKTNV-0" />
        <mxCell id="vP9GtCUoibggrXWLVpGR-3" value="" style="edgeStyle=orthogonalEdgeStyle;rounded=0;orthogonalLoop=1;jettySize=auto;html=1;" edge="1" parent="WIyWlLk6GJQsqaUBKTNV-1" source="vP9GtCUoibggrXWLVpGR-0" target="vP9GtCUoibggrXWLVpGR-2">
          <mxGeometry relative="1" as="geometry" />
        </mxCell>
        <mxCell id="vP9GtCUoibggrXWLVpGR-14" value="" style="edgeStyle=orthogonalEdgeStyle;rounded=0;orthogonalLoop=1;jettySize=auto;html=1;" edge="1" parent="WIyWlLk6GJQsqaUBKTNV-1" source="vP9GtCUoibggrXWLVpGR-0" target="vP9GtCUoibggrXWLVpGR-13">
          <mxGeometry relative="1" as="geometry" />
        </mxCell>
        <mxCell id="vP9GtCUoibggrXWLVpGR-0" value="" style="fontColor=#0066CC;verticalAlign=top;verticalLabelPosition=bottom;labelPosition=center;align=center;html=1;outlineConnect=0;fillColor=#CCCCCC;strokeColor=#6881B3;gradientColor=none;gradientDirection=north;strokeWidth=2;shape=mxgraph.networks.pc;" vertex="1" parent="WIyWlLk6GJQsqaUBKTNV-1">
          <mxGeometry x="300" y="280" width="100" height="70" as="geometry" />
        </mxCell>
        <mxCell id="vP9GtCUoibggrXWLVpGR-1" value="&lt;div&gt;google.com&lt;/div&gt;&lt;div&gt;&lt;br&gt;&lt;/div&gt;" style="text;html=1;strokeColor=none;fillColor=none;align=center;verticalAlign=middle;whiteSpace=wrap;rounded=0;" vertex="1" parent="WIyWlLk6GJQsqaUBKTNV-1">
          <mxGeometry x="330" y="300" width="60" height="30" as="geometry" />
        </mxCell>
        <mxCell id="vP9GtCUoibggrXWLVpGR-7" value="" style="edgeStyle=orthogonalEdgeStyle;rounded=0;orthogonalLoop=1;jettySize=auto;html=1;" edge="1" parent="WIyWlLk6GJQsqaUBKTNV-1" source="vP9GtCUoibggrXWLVpGR-2">
          <mxGeometry relative="1" as="geometry">
            <mxPoint x="535" y="195" as="targetPoint" />
          </mxGeometry>
        </mxCell>
        <mxCell id="vP9GtCUoibggrXWLVpGR-2" value="" style="image;sketch=0;aspect=fixed;html=1;points=[];align=center;fontSize=12;image=img/lib/mscae/DNS.svg;" vertex="1" parent="WIyWlLk6GJQsqaUBKTNV-1">
          <mxGeometry x="500" y="280" width="70" height="70" as="geometry" />
        </mxCell>
        <mxCell id="vP9GtCUoibggrXWLVpGR-10" value="" style="edgeStyle=orthogonalEdgeStyle;rounded=0;orthogonalLoop=1;jettySize=auto;html=1;" edge="1" parent="WIyWlLk6GJQsqaUBKTNV-1">
          <mxGeometry relative="1" as="geometry">
            <mxPoint x="511" y="180" as="sourcePoint" />
            <mxPoint x="360" y="270" as="targetPoint" />
          </mxGeometry>
        </mxCell>
        <mxCell id="vP9GtCUoibggrXWLVpGR-11" value="HANDSHAKE" style="ellipse;whiteSpace=wrap;html=1;aspect=fixed;" vertex="1" parent="WIyWlLk6GJQsqaUBKTNV-1">
          <mxGeometry x="414" y="200" width="80" height="80" as="geometry" />
        </mxCell>
        <mxCell id="vP9GtCUoibggrXWLVpGR-13" value="" style="sketch=0;outlineConnect=0;fontColor=#232F3E;gradientColor=none;fillColor=#232F3D;strokeColor=none;dashed=0;verticalLabelPosition=bottom;verticalAlign=top;align=center;html=1;fontSize=12;fontStyle=0;aspect=fixed;pointerEvents=1;shape=mxgraph.aws4.generic_firewall;" vertex="1" parent="WIyWlLk6GJQsqaUBKTNV-1">
          <mxGeometry x="311" y="420" width="78" height="66" as="geometry" />
        </mxCell>
        <mxCell id="vP9GtCUoibggrXWLVpGR-17" value="" style="edgeStyle=orthogonalEdgeStyle;rounded=0;orthogonalLoop=1;jettySize=auto;html=1;" edge="1" parent="WIyWlLk6GJQsqaUBKTNV-1" source="vP9GtCUoibggrXWLVpGR-15" target="vP9GtCUoibggrXWLVpGR-16">
          <mxGeometry relative="1" as="geometry" />
        </mxCell>
        <mxCell id="vP9GtCUoibggrXWLVpGR-15" value="FIREWALL" style="text;html=1;strokeColor=none;fillColor=none;align=center;verticalAlign=middle;whiteSpace=wrap;rounded=0;" vertex="1" parent="WIyWlLk6GJQsqaUBKTNV-1">
          <mxGeometry x="320" y="486" width="60" height="30" as="geometry" />
        </mxCell>
        <mxCell id="vP9GtCUoibggrXWLVpGR-20" value="" style="edgeStyle=orthogonalEdgeStyle;rounded=0;orthogonalLoop=1;jettySize=auto;html=1;" edge="1" parent="WIyWlLk6GJQsqaUBKTNV-1" source="vP9GtCUoibggrXWLVpGR-16" target="vP9GtCUoibggrXWLVpGR-19">
          <mxGeometry relative="1" as="geometry" />
        </mxCell>
        <mxCell id="vP9GtCUoibggrXWLVpGR-16" value="" style="image;aspect=fixed;perimeter=ellipsePerimeter;html=1;align=center;shadow=0;dashed=0;spacingTop=3;image=img/lib/active_directory/database_server.svg;" vertex="1" parent="WIyWlLk6GJQsqaUBKTNV-1">
          <mxGeometry x="329.5" y="570" width="41" height="50" as="geometry" />
        </mxCell>
        <mxCell id="vP9GtCUoibggrXWLVpGR-25" value="" style="edgeStyle=orthogonalEdgeStyle;rounded=0;orthogonalLoop=1;jettySize=auto;html=1;" edge="1" parent="WIyWlLk6GJQsqaUBKTNV-1" source="vP9GtCUoibggrXWLVpGR-18" target="vP9GtCUoibggrXWLVpGR-24">
          <mxGeometry relative="1" as="geometry" />
        </mxCell>
        <mxCell id="vP9GtCUoibggrXWLVpGR-18" value="SERVER." style="text;html=1;align=center;verticalAlign=middle;resizable=0;points=[];autosize=1;strokeColor=none;fillColor=none;" vertex="1" parent="WIyWlLk6GJQsqaUBKTNV-1">
          <mxGeometry x="300" y="618" width="80" height="30" as="geometry" />
        </mxCell>
        <mxCell id="vP9GtCUoibggrXWLVpGR-19" value="" style="outlineConnect=0;dashed=0;verticalLabelPosition=bottom;verticalAlign=top;align=center;html=1;shape=mxgraph.aws3.application_load_balancer;fillColor=#F58534;gradientColor=none;" vertex="1" parent="WIyWlLk6GJQsqaUBKTNV-1">
          <mxGeometry x="494" y="559" width="69" height="72" as="geometry" />
        </mxCell>
        <mxCell id="vP9GtCUoibggrXWLVpGR-21" value="" style="edgeStyle=orthogonalEdgeStyle;rounded=0;orthogonalLoop=1;jettySize=auto;html=1;" edge="1" parent="WIyWlLk6GJQsqaUBKTNV-1">
          <mxGeometry relative="1" as="geometry">
            <mxPoint x="504" y="605" as="sourcePoint" />
            <mxPoint x="381" y="605" as="targetPoint" />
          </mxGeometry>
        </mxCell>
        <mxCell id="vP9GtCUoibggrXWLVpGR-22" value="&lt;div&gt;LOAD BALANCER&lt;/div&gt;&lt;div&gt;&lt;br&gt;&lt;/div&gt;" style="text;html=1;strokeColor=none;fillColor=none;align=center;verticalAlign=middle;whiteSpace=wrap;rounded=0;" vertex="1" parent="WIyWlLk6GJQsqaUBKTNV-1">
          <mxGeometry x="494" y="640" width="60" height="30" as="geometry" />
        </mxCell>
        <mxCell id="vP9GtCUoibggrXWLVpGR-24" value="" style="image;aspect=fixed;html=1;points=[];align=center;fontSize=12;image=img/lib/azure2/general/Browser.svg;" vertex="1" parent="WIyWlLk6GJQsqaUBKTNV-1">
          <mxGeometry x="307.5" y="690" width="65" height="52" as="geometry" />
        </mxCell>
        <mxCell id="vP9GtCUoibggrXWLVpGR-29" value="" style="edgeStyle=orthogonalEdgeStyle;rounded=0;orthogonalLoop=1;jettySize=auto;html=1;" edge="1" parent="WIyWlLk6GJQsqaUBKTNV-1" source="vP9GtCUoibggrXWLVpGR-26" target="vP9GtCUoibggrXWLVpGR-27">
          <mxGeometry relative="1" as="geometry" />
        </mxCell>
        <mxCell id="vP9GtCUoibggrXWLVpGR-26" value="BROWSER" style="text;html=1;strokeColor=none;fillColor=none;align=center;verticalAlign=middle;whiteSpace=wrap;rounded=0;" vertex="1" parent="WIyWlLk6GJQsqaUBKTNV-1">
          <mxGeometry x="311" y="742" width="60" height="30" as="geometry" />
        </mxCell>
        <mxCell id="vP9GtCUoibggrXWLVpGR-27" value="" style="shape=image;html=1;verticalAlign=top;verticalLabelPosition=bottom;labelBackgroundColor=#ffffff;imageAspect=0;aspect=fixed;image=https://cdn4.iconfinder.com/data/icons/cizim-social/128/google.png" vertex="1" parent="WIyWlLk6GJQsqaUBKTNV-1">
          <mxGeometry x="277" y="860" width="128" height="128" as="geometry" />
        </mxCell>
        <mxCell id="vP9GtCUoibggrXWLVpGR-30" value="DISPLAYED CONTENT" style="text;html=1;strokeColor=none;fillColor=none;align=center;verticalAlign=middle;whiteSpace=wrap;rounded=0;" vertex="1" parent="WIyWlLk6GJQsqaUBKTNV-1">
          <mxGeometry x="311" y="988" width="60" height="30" as="geometry" />
        </mxCell>
        <mxCell id="vP9GtCUoibggrXWLVpGR-31" value="" style="sketch=0;outlineConnect=0;fontColor=#232F3E;gradientColor=none;fillColor=#ED7100;strokeColor=none;dashed=0;verticalLabelPosition=bottom;verticalAlign=top;align=center;html=1;fontSize=12;fontStyle=0;aspect=fixed;pointerEvents=1;shape=mxgraph.aws4.elastic_ip_address;" vertex="1" parent="WIyWlLk6GJQsqaUBKTNV-1">
          <mxGeometry x="506" y="170" width="48" height="20" as="geometry" />
        </mxCell>
        <mxCell id="vP9GtCUoibggrXWLVpGR-32" value="IP ADDRESS" style="text;html=1;strokeColor=none;fillColor=none;align=center;verticalAlign=middle;whiteSpace=wrap;rounded=0;" vertex="1" parent="WIyWlLk6GJQsqaUBKTNV-1">
          <mxGeometry x="494" y="140" width="60" height="30" as="geometry" />
        </mxCell>
      </root>
    </mxGraphModel>
  </diagram>
</mxfile>
